#!OML:ASF G:\JayActor3\Patient Classification 1\Patient 1\Session 5\male.ASF
:FULLY-SPECIFIED
:DEGREES
489
root 43.5113 16.323 -4.54119 1263.35 82.9943 1267.05
lowerback 0.33792 -1.68403 0.0140326
upperback 2.6851 -2.20876 -0.488631
thorax 2.5439 -1.08463 -0.549778
lowerneck -10.0067 -0.416338 1.99779
upperneck 8.1505 -1.01676 1.86455
head 4.51622 -0.324992 0.202653
rclavicle -1.37783e-014 -2.5842e-015
rhumerus -34.3302 -9.71079 -83.7761
rradius 23.0005
rwrist 8.27074
rhand -17.8666 -4.89378
rfingers 7.12502
rthumb 8.39903 -34.7068
lclavicle -1.37783e-014 -2.5842e-015
lhumerus -29.0128 20.0616 79.6596
lradius 17.1663
lwrist 1.88778
lhand -19.7214 15.3814
lfingers 7.12502
lthumb 6.60881 45.2582
rfemur -21.4084 3.34182 22.9113
rtibia 32.8375
rfoot -10.1252 -17.939
rtoes 10.9253
lfemur 6.01472 6.669 -13.5
ltibia 50.0698
lfoot 9.41705 -0.558845
ltoes -9.85012
490
root 43.6211 16.3323 -4.53356 1265.3 82.7806 1269.02
lowerback 0.419775 -1.66589 0.323729
upperback 2.7323 -2.18905 -0.387793
thorax 2.53896 -1.06861 -0.617313
lowerneck -10.104 -0.521055 1.94613
upperneck 8.04007 -1.1627 1.98724
head 4.49713 -0.392921 0.242915
rclavicle 2.29534e-014 -2.98177e-015
rhumerus -33.932 -9.12646 -83.9743
rradius 23.4018
rwrist 7.77369
rhand -18.0606 -4.83065
rfingers 7.12502
rthumb 8.21182 -34.6511
lclavicle 2.29534e-014 -2.98177e-015
lhumerus -29.4132 20.4924 79.4477
lradius 17.0164
lwrist 1.83174
lhand -19.9834 15.9045
lfingers 7.12502
lthumb 6.3558 45.7892
rfemur -20.9313 3.22764 23.3014
rtibia 32.7949
rfoot -10.4885 -17.9853
rtoes 10.812
lfemur 4.55498 6.20082 -13.3746
ltibia 52.0941
lfoot 9.39323 0.640658
ltoes -8.98175
491
root 43.7276 16.3406 -4.52726 1266.74 82.5875 1270.47
lowerback 0.512051 -1.63925 0.580613
upperback 2.7714 -2.15643 -0.302704
thorax 2.52158 -1.04708 -0.670838
lowerneck -10.2096 -0.626493 1.88918
upperneck 7.94305 -1.30989 2.1194
head 4.48512 -0.460772 0.287189
rclavicle 1.94747e-014 -1.19271e-015
rhumerus -33.5399 -8.53861 -84.1521
rradius 23.817
rwrist 7.31003
rhand -18.2472 -4.76942
rfingers 7.12502
rthumb 8.03177 -34.5968
lclavicle 1.94747e-014 -1.19271e-015
lhumerus -29.8173 20.869 79.247
lradius 16.9147
lwrist 1.7073
lhand -20.1924 16.2507
lfingers 7.12502
lthumb 6.15406 46.1413
rfemur -20.5034 3.11282 23.6256
rtibia 32.7889
rfoot -10.8345 -18.0183
rtoes 10.631
lfemur 3.13786 5.75039 -13.3431
ltibia 53.8993
lfoot 9.00639 1.87889
ltoes -8.09425
492
root 43.8309 16.3485 -4.52185 1267.71 82.4185 1271.44
lowerback 0.609398 -1.604 0.778587
upperback 2.8052 -2.11082 -0.234092
thorax 2.49785 -1.02017 -0.707983
lowerneck -10.3263 -0.73218 1.82458
upperneck 7.85816 -1.4579 2.26587
head 4.48042 -0.528105 0.337554
rclavicle -1.00635e-015 -4.77083e-015
rhumerus -33.1508 -7.95155 -84.3123
rradius 24.247
rwrist 6.86555
rhand -18.4376 -4.70099
rfingers 7.12502
rthumb 7.84798 -34.5353
lclavicle -1.00635e-015 -4.77083e-015
lhumerus -30.2368 21.3032 78.9875
lradius 16.7965
lwrist 1.35553
lhand -20.2319 15.9817
lfingers 7.12502
lthumb 6.1159 45.8734
rfemur -20.121 3.00759 23.8835
rtibia 32.8131
rfoot -11.1679 -18.0489
rtoes 10.4215
lfemur 1.76358 5.30469 -13.4038
ltibia 55.4703
lfoot 8.34162 3.08942
ltoes -7.13663
493
root 43.9314 16.3565 -4.51671 1268.33 82.2771 1272.04
lowerback 0.709589 -1.55792 0.922764
upperback 2.83043 -2.04958 -0.181011
thorax 2.46552 -0.986589 -0.730666
lowerneck -10.4406 -0.84066 1.75832
upperneck 7.77216 -1.60958 2.41936
head 4.47536 -0.596827 0.390273
rclavicle -2.21893e-014 9.93923e-016
rhumerus -32.7722 -7.3915 -84.4511
rradius 24.6935
rwrist 6.45425
rhand -18.6099 -4.63586
rfingers 7.12502
rthumb 7.68172 -34.4763
lclavicle -2.21893e-014 9.93923e-016
lhumerus -30.6717 21.6823 78.7283
lradius 16.7291
lwrist 0.948594
lhand -20.156 15.4674
lfingers 7.12502
lthumb 6.18923 45.357
rfemur -19.7854 2.92518 24.086
rtibia 32.8607
rfoot -11.4845 -18.0889
rtoes 10.1827
lfemur 0.426141 4.85653 -13.5399
ltibia 56.7999
lfoot 7.485 4.17451
ltoes -6.09524
494
root 44.0292 16.3646 -4.51159 1268.71 82.1637 1272.38
lowerback 0.811835 -1.50107 1.02788
upperback 2.84582 -1.97314 -0.143828
thorax 2.42314 -0.946282 -0.747583
lowerneck -10.5413 -0.949625 1.69429
upperneck 7.67615 -1.76199 2.58242
head 4.46446 -0.665459 0.445753
rclavicle 5.18083e-015 7.95139e-016
rhumerus -32.4094 -6.84895 -84.5808
rradius 25.1603
rwrist 6.05703
rhand -18.766 -4.60866
rfingers 7.12502
rthumb 7.53102 -34.4546
lclavicle 5.18083e-015 7.95139e-016
lhumerus -31.1136 22.0193 78.4602
lradius 16.6925
lwrist 0.513744
lhand -19.9922 14.7019
lfingers 7.12502
lthumb 6.34733 44.5868
rfemur -19.4904 2.87053 24.2471
rtibia 32.9249
rfoot -11.7878 -18.1386
rtoes 9.93391
lfemur -0.873175 4.40008 -13.7308
ltibia 57.8873
lfoot 6.51187 5.09599
ltoes -5.19252
